<svg width="100%" height="100%" id="svg" viewBox="0 0 1440 590" xmlns="http://www.w3.org/2000/svg" class="transition duration-300 ease-in-out delay-150"><defs><linearGradient id="gradient" x1="0%" y1="52%" x2="100%" y2="48%"><stop offset="5%" stop-color="#8ed1fc"></stop><stop offset="95%" stop-color="#f78da7"></stop></linearGradient></defs><path d="M 0,600 L 0,112 C 112.22966507177034,99.22488038277513 224.45933014354068,86.44976076555024 332,85 C 439.5406698564593,83.55023923444976 542.3923444976076,93.42583732057416 620,97 C 697.6076555023924,100.57416267942584 749.9712918660288,97.84688995215312 842,90 C 934.0287081339712,82.15311004784688 1065.7224880382776,69.1866028708134 1172,72 C 1278.2775119617224,74.8133971291866 1359.1387559808613,93.4066985645933 1440,112 L 1440,600 L 0,600 Z" stroke="none" stroke-width="0" fill="url(#gradient)" fill-opacity="0.4" class="transition-all duration-300 ease-in-out delay-150 path-0"></path><defs><linearGradient id="gradient" x1="0%" y1="52%" x2="100%" y2="48%"><stop offset="5%" stop-color="#8ed1fc"></stop><stop offset="95%" stop-color="#f78da7"></stop></linearGradient></defs><path d="M 0,600 L 0,262 C 93.80861244019138,273.18660287081343 187.61722488038276,284.3732057416268 291,270 C 394.38277511961724,255.6267942583732 507.3397129186603,215.6937799043062 601,223 C 694.6602870813397,230.3062200956938 769.023923444976,284.85167464114835 853,291 C 936.976076555024,297.14832535885165 1030.5645933014355,254.89952153110048 1130,242 C 1229.4354066985645,229.10047846889952 1334.7177033492821,245.55023923444975 1440,262 L 1440,600 L 0,600 Z" stroke="none" stroke-width="0" fill="url(#gradient)" fill-opacity="0.53" class="transition-all duration-300 ease-in-out delay-150 path-1"></path><defs><linearGradient id="gradient" x1="0%" y1="52%" x2="100%" y2="48%"><stop offset="5%" stop-color="#8ed1fc"></stop><stop offset="95%" stop-color="#f78da7"></stop></linearGradient></defs><path d="M 0,600 L 0,412 C 111.25358851674642,412.47846889952154 222.50717703349284,412.95693779904303 326,416 C 429.49282296650716,419.04306220095697 525.224880382775,424.6507177033493 618,437 C 710.775119617225,449.3492822966507 800.5933014354066,468.4401913875598 886,467 C 971.4066985645934,465.5598086124402 1052.4019138755982,443.58851674641147 1144,431 C 1235.5980861244018,418.41148325358853 1337.7990430622008,415.2057416267943 1440,412 L 1440,600 L 0,600 Z" stroke="none" stroke-width="0" fill="url(#gradient)" fill-opacity="1" class="transition-all duration-300 ease-in-out delay-150 path-2"></path></svg>
