<svg width="100%" height="100%" id="svg" viewBox="0 0 1440 590" xmlns="http://www.w3.org/2000/svg" class="transition duration-300 ease-in-out delay-150"><defs><linearGradient id="gradient" x1="0%" y1="52%" x2="100%" y2="48%"><stop offset="5%" stop-color="#8ed1fc"></stop><stop offset="95%" stop-color="#f78da7"></stop></linearGradient></defs><path d="M 0,600 L 0,112 C 128.33492822966505,122.9090909090909 256.6698564593301,133.8181818181818 340,142 C 423.3301435406699,150.1818181818182 461.6555023923446,155.63636363636365 536,159 C 610.3444976076554,162.36363636363635 720.7081339712919,163.63636363636363 824,166 C 927.2918660287081,168.36363636363637 1023.511961722488,171.8181818181818 1125,163 C 1226.488038277512,154.1818181818182 1333.244019138756,133.0909090909091 1440,112 L 1440,600 L 0,600 Z" stroke="none" stroke-width="0" fill="url(#gradient)" fill-opacity="0.4" class="transition-all duration-300 ease-in-out delay-150 path-0" transform="rotate(-180 720 300)"></path><defs><linearGradient id="gradient" x1="0%" y1="52%" x2="100%" y2="48%"><stop offset="5%" stop-color="#8ed1fc"></stop><stop offset="95%" stop-color="#f78da7"></stop></linearGradient></defs><path d="M 0,600 L 0,262 C 72.24880382775123,250.5263157894737 144.49760765550246,239.0526315789474 255,251 C 365.50239234449754,262.9473684210526 514.2583732057416,298.3157894736842 609,296 C 703.7416267942584,293.6842105263158 744.4688995215312,253.68421052631578 819,232 C 893.5311004784688,210.31578947368422 1001.8660287081341,206.94736842105266 1111,215 C 1220.133971291866,223.05263157894734 1330.066985645933,242.52631578947367 1440,262 L 1440,600 L 0,600 Z" stroke="none" stroke-width="0" fill="url(#gradient)" fill-opacity="0.53" class="transition-all duration-300 ease-in-out delay-150 path-1" transform="rotate(-180 720 300)"></path><defs><linearGradient id="gradient" x1="0%" y1="52%" x2="100%" y2="48%"><stop offset="5%" stop-color="#8ed1fc"></stop><stop offset="95%" stop-color="#f78da7"></stop></linearGradient></defs><path d="M 0,600 L 0,412 C 88.75598086124404,406.75598086124404 177.51196172248808,401.5119617224881 265,398 C 352.4880382775119,394.4880382775119 438.7081339712918,392.7081339712919 532,399 C 625.2918660287082,405.2918660287081 725.6555023923446,419.65550239234454 845,429 C 964.3444976076554,438.34449760765546 1102.66985645933,442.6698564593301 1205,439 C 1307.33014354067,435.3301435406699 1373.665071770335,423.665071770335 1440,412 L 1440,600 L 0,600 Z" stroke="none" stroke-width="0" fill="url(#gradient)" fill-opacity="1" class="transition-all duration-300 ease-in-out delay-150 path-2" transform="rotate(-180 720 300)"></path></svg>
