<svg width="100%" height="100%" id="svg" viewBox="0 0 1440 590" xmlns="http://www.w3.org/2000/svg" class="transition duration-300 ease-in-out delay-150"><defs><linearGradient id="gradient" x1="0%" y1="52%" x2="100%" y2="48%"><stop offset="5%" stop-color="#8ed1fc"></stop><stop offset="95%" stop-color="#f78da7"></stop></linearGradient></defs><path d="M 0,600 L 0,112 C 95.76076555023923,121.16746411483254 191.52153110047846,130.33492822966508 297,121 C 402.47846889952154,111.66507177033493 517.6746411483253,83.82775119617224 617,78 C 716.3253588516747,72.17224880382776 799.7799043062199,88.35406698564594 888,106 C 976.2200956937801,123.64593301435406 1069.2057416267942,142.755980861244 1162,144 C 1254.7942583732058,145.244019138756 1347.3971291866028,128.622009569378 1440,112 L 1440,600 L 0,600 Z" stroke="none" stroke-width="0" fill="url(#gradient)" fill-opacity="0.4" class="transition-all duration-300 ease-in-out delay-150 path-0"></path><defs><linearGradient id="gradient" x1="0%" y1="52%" x2="100%" y2="48%"><stop offset="5%" stop-color="#8ed1fc"></stop><stop offset="95%" stop-color="#f78da7"></stop></linearGradient></defs><path d="M 0,600 L 0,262 C 81.97129186602871,246.01913875598086 163.94258373205741,230.03827751196172 249,217 C 334.0574162679426,203.96172248803828 422.200956937799,193.86602870813397 537,209 C 651.799043062201,224.13397129186603 793.2535885167465,264.4976076555024 889,264 C 984.7464114832535,263.5023923444976 1034.7846889952152,222.14354066985646 1119,215 C 1203.2153110047848,207.85645933014354 1321.6076555023924,234.92822966507177 1440,262 L 1440,600 L 0,600 Z" stroke="none" stroke-width="0" fill="url(#gradient)" fill-opacity="0.53" class="transition-all duration-300 ease-in-out delay-150 path-1"></path><defs><linearGradient id="gradient" x1="0%" y1="52%" x2="100%" y2="48%"><stop offset="5%" stop-color="#8ed1fc"></stop><stop offset="95%" stop-color="#f78da7"></stop></linearGradient></defs><path d="M 0,600 L 0,412 C 88.21052631578945,449.6363636363636 176.4210526315789,487.2727272727273 271,466 C 365.5789473684211,444.7272727272727 466.52631578947364,364.54545454545456 561,359 C 655.4736842105264,353.45454545454544 743.4736842105264,422.5454545454545 847,451 C 950.5263157894736,479.4545454545455 1069.578947368421,467.27272727272725 1171,454 C 1272.421052631579,440.72727272727275 1356.2105263157896,426.3636363636364 1440,412 L 1440,600 L 0,600 Z" stroke="none" stroke-width="0" fill="url(#gradient)" fill-opacity="1" class="transition-all duration-300 ease-in-out delay-150 path-2"></path></svg>
